<mxfile host="app.diagrams.net" agent="Mozilla/5.0 (Windows NT 10.0; Win64; x64) AppleWebKit/537.36 (KHTML, like Gecko) Chrome/135.0.0.0 Safari/537.36" version="26.2.14">
  <diagram name="Page-1" id="W4Ewju5T7DlNG3IPAyqr">
    <mxGraphModel dx="731" dy="551" grid="1" gridSize="10" guides="1" tooltips="1" connect="1" arrows="1" fold="1" page="1" pageScale="1" pageWidth="1169" pageHeight="827" math="0" shadow="0">
      <root>
        <mxCell id="0" />
        <mxCell id="1" parent="0" />
        <mxCell id="dqEQVBHNj60N6kbqKJd0-1" value="Manager" style="shape=umlActor;verticalLabelPosition=bottom;verticalAlign=top;html=1;outlineConnect=0;" parent="1" vertex="1">
          <mxGeometry x="60" y="130" width="30" height="60" as="geometry" />
        </mxCell>
        <mxCell id="dqEQVBHNj60N6kbqKJd0-2" value="" style="shape=umlBoundary;whiteSpace=wrap;html=1;" parent="1" vertex="1">
          <mxGeometry x="230" y="110" width="100" height="80" as="geometry" />
        </mxCell>
        <mxCell id="dqEQVBHNj60N6kbqKJd0-3" value="" style="endArrow=none;html=1;rounded=0;exitX=1;exitY=0.3333333333333333;exitDx=0;exitDy=0;exitPerimeter=0;entryX=-0.02;entryY=0.5;entryDx=0;entryDy=0;entryPerimeter=0;" parent="1" source="dqEQVBHNj60N6kbqKJd0-1" target="dqEQVBHNj60N6kbqKJd0-2" edge="1">
          <mxGeometry width="50" height="50" relative="1" as="geometry">
            <mxPoint x="260" y="400" as="sourcePoint" />
            <mxPoint x="310" y="350" as="targetPoint" />
          </mxGeometry>
        </mxCell>
        <mxCell id="dqEQVBHNj60N6kbqKJd0-4" value="Selects&lt;div&gt;&quot;Notifications&quot;&lt;/div&gt;" style="text;html=1;align=center;verticalAlign=middle;resizable=0;points=[];autosize=1;strokeColor=none;fillColor=none;" parent="1" vertex="1">
          <mxGeometry x="110" y="110" width="100" height="40" as="geometry" />
        </mxCell>
        <mxCell id="dqEQVBHNj60N6kbqKJd0-5" value="Display" style="ellipse;shape=umlControl;whiteSpace=wrap;html=1;" parent="1" vertex="1">
          <mxGeometry x="470" y="190" width="70" height="80" as="geometry" />
        </mxCell>
        <mxCell id="dqEQVBHNj60N6kbqKJd0-6" value="" style="endArrow=none;html=1;rounded=0;exitX=1.01;exitY=0.5;exitDx=0;exitDy=0;exitPerimeter=0;entryX=0.006;entryY=0.512;entryDx=0;entryDy=0;entryPerimeter=0;" parent="1" source="dqEQVBHNj60N6kbqKJd0-2" target="p3D7ICheK7Dhiz9U6RIN-1" edge="1">
          <mxGeometry width="50" height="50" relative="1" as="geometry">
            <mxPoint x="370" y="410" as="sourcePoint" />
            <mxPoint x="640" y="150" as="targetPoint" />
          </mxGeometry>
        </mxCell>
        <mxCell id="dqEQVBHNj60N6kbqKJd0-7" value="" style="shape=umlBoundary;whiteSpace=wrap;html=1;" parent="1" vertex="1">
          <mxGeometry x="230" y="280" width="100" height="80" as="geometry" />
        </mxCell>
        <mxCell id="dqEQVBHNj60N6kbqKJd0-8" value="" style="endArrow=none;html=1;rounded=0;entryX=0.071;entryY=0.775;entryDx=0;entryDy=0;entryPerimeter=0;exitX=0.91;exitY=0.2;exitDx=0;exitDy=0;exitPerimeter=0;" parent="1" source="dqEQVBHNj60N6kbqKJd0-7" target="dqEQVBHNj60N6kbqKJd0-5" edge="1">
          <mxGeometry width="50" height="50" relative="1" as="geometry">
            <mxPoint x="370" y="410" as="sourcePoint" />
            <mxPoint x="420" y="360" as="targetPoint" />
          </mxGeometry>
        </mxCell>
        <mxCell id="dqEQVBHNj60N6kbqKJd0-10" value="" style="endArrow=none;html=1;rounded=0;exitX=1;exitY=0.3333333333333333;exitDx=0;exitDy=0;exitPerimeter=0;entryX=-0.01;entryY=0.513;entryDx=0;entryDy=0;entryPerimeter=0;" parent="1" source="dqEQVBHNj60N6kbqKJd0-1" target="dqEQVBHNj60N6kbqKJd0-7" edge="1">
          <mxGeometry width="50" height="50" relative="1" as="geometry">
            <mxPoint x="160" y="270" as="sourcePoint" />
            <mxPoint x="420" y="360" as="targetPoint" />
          </mxGeometry>
        </mxCell>
        <mxCell id="dqEQVBHNj60N6kbqKJd0-11" value="Selects &quot;New Notification&quot;" style="text;html=1;align=center;verticalAlign=middle;resizable=0;points=[];autosize=1;strokeColor=none;fillColor=none;rotation=50;" parent="1" vertex="1">
          <mxGeometry x="95" y="205" width="160" height="30" as="geometry" />
        </mxCell>
        <mxCell id="dqEQVBHNj60N6kbqKJd0-17" value="Ten&lt;span style=&quot;background-color: transparent; color: light-dark(rgb(0, 0, 0), rgb(255, 255, 255));&quot;&gt;ant&lt;/span&gt;" style="shape=umlActor;verticalLabelPosition=bottom;verticalAlign=top;html=1;" parent="1" vertex="1">
          <mxGeometry x="60" y="581" width="30" height="60" as="geometry" />
        </mxCell>
        <mxCell id="dqEQVBHNj60N6kbqKJd0-18" value="" style="shape=umlBoundary;whiteSpace=wrap;html=1;" parent="1" vertex="1">
          <mxGeometry x="230" y="561" width="100" height="80" as="geometry" />
        </mxCell>
        <mxCell id="dqEQVBHNj60N6kbqKJd0-20" value="" style="endArrow=none;html=1;rounded=0;exitX=1;exitY=0.3333333333333333;exitDx=0;exitDy=0;exitPerimeter=0;entryX=-0.01;entryY=0.5;entryDx=0;entryDy=0;entryPerimeter=0;" parent="1" source="dqEQVBHNj60N6kbqKJd0-17" target="dqEQVBHNj60N6kbqKJd0-18" edge="1">
          <mxGeometry width="50" height="50" relative="1" as="geometry">
            <mxPoint x="280" y="577" as="sourcePoint" />
            <mxPoint x="330" y="527" as="targetPoint" />
          </mxGeometry>
        </mxCell>
        <mxCell id="dqEQVBHNj60N6kbqKJd0-21" value="Select Filters" style="text;html=1;align=center;verticalAlign=middle;resizable=0;points=[];autosize=1;strokeColor=none;fillColor=none;rotation=0;" parent="1" vertex="1">
          <mxGeometry x="100" y="580" width="90" height="30" as="geometry" />
        </mxCell>
        <mxCell id="dqEQVBHNj60N6kbqKJd0-22" value="Search" style="ellipse;shape=umlControl;whiteSpace=wrap;html=1;" parent="1" vertex="1">
          <mxGeometry x="360" y="770" width="70" height="80" as="geometry" />
        </mxCell>
        <mxCell id="dqEQVBHNj60N6kbqKJd0-23" value="" style="endArrow=none;html=1;rounded=0;exitX=0.316;exitY=0.171;exitDx=0;exitDy=0;exitPerimeter=0;entryX=0.93;entryY=0.776;entryDx=0;entryDy=0;entryPerimeter=0;" parent="1" source="dqEQVBHNj60N6kbqKJd0-22" target="dqEQVBHNj60N6kbqKJd0-18" edge="1">
          <mxGeometry width="50" height="50" relative="1" as="geometry">
            <mxPoint x="280" y="986" as="sourcePoint" />
            <mxPoint x="200" y="896" as="targetPoint" />
          </mxGeometry>
        </mxCell>
        <mxCell id="dqEQVBHNj60N6kbqKJd0-24" value="Display" style="ellipse;shape=umlControl;whiteSpace=wrap;html=1;" parent="1" vertex="1">
          <mxGeometry x="190" y="770" width="70" height="80" as="geometry" />
        </mxCell>
        <mxCell id="dqEQVBHNj60N6kbqKJd0-25" value="" style="endArrow=none;html=1;rounded=0;exitX=1.002;exitY=0.539;exitDx=0;exitDy=0;exitPerimeter=0;entryX=0;entryY=0.539;entryDx=0;entryDy=0;entryPerimeter=0;" parent="1" source="dqEQVBHNj60N6kbqKJd0-24" target="dqEQVBHNj60N6kbqKJd0-22" edge="1">
          <mxGeometry width="50" height="50" relative="1" as="geometry">
            <mxPoint x="340" y="770" as="sourcePoint" />
            <mxPoint x="390" y="720" as="targetPoint" />
          </mxGeometry>
        </mxCell>
        <mxCell id="dqEQVBHNj60N6kbqKJd0-28" value="Notification List" style="ellipse;shape=umlEntity;whiteSpace=wrap;html=1;" parent="1" vertex="1">
          <mxGeometry x="710" y="660" width="80" height="80" as="geometry" />
        </mxCell>
        <mxCell id="dqEQVBHNj60N6kbqKJd0-32" value="" style="endArrow=none;html=1;rounded=0;exitX=0.314;exitY=0.175;exitDx=0;exitDy=0;exitPerimeter=0;entryX=0.247;entryY=0.84;entryDx=0;entryDy=0;entryPerimeter=0;" parent="1" source="dqEQVBHNj60N6kbqKJd0-24" target="dqEQVBHNj60N6kbqKJd0-18" edge="1">
          <mxGeometry width="50" height="50" relative="1" as="geometry">
            <mxPoint x="290" y="1049" as="sourcePoint" />
            <mxPoint x="376" y="996" as="targetPoint" />
          </mxGeometry>
        </mxCell>
        <mxCell id="dqEQVBHNj60N6kbqKJd0-33" value="&lt;span style=&quot;text-wrap-mode: wrap;&quot;&gt;Tenant&amp;nbsp;&lt;/span&gt;&lt;span style=&quot;background-color: transparent; color: light-dark(rgb(0, 0, 0), rgb(255, 255, 255)); text-wrap-mode: wrap;&quot;&gt;Notification&amp;nbsp;&lt;/span&gt;&lt;span style=&quot;background-color: transparent; color: light-dark(rgb(0, 0, 0), rgb(255, 255, 255)); text-wrap-mode: wrap;&quot;&gt;Screen&lt;/span&gt;" style="text;html=1;align=center;verticalAlign=middle;resizable=0;points=[];autosize=1;strokeColor=none;fillColor=none;" parent="1" vertex="1">
          <mxGeometry x="210" y="536" width="160" height="30" as="geometry" />
        </mxCell>
        <mxCell id="dqEQVBHNj60N6kbqKJd0-34" value="&lt;span style=&quot;text-wrap-mode: wrap;&quot;&gt;Manager Notification Screen&lt;/span&gt;" style="text;html=1;align=center;verticalAlign=middle;resizable=0;points=[];autosize=1;strokeColor=none;fillColor=none;" parent="1" vertex="1">
          <mxGeometry x="200" y="240" width="170" height="30" as="geometry" />
        </mxCell>
        <mxCell id="dqEQVBHNj60N6kbqKJd0-35" value="&lt;span style=&quot;text-wrap-mode: wrap;&quot;&gt;Manager&amp;nbsp;&lt;/span&gt;&lt;div&gt;&lt;span style=&quot;text-wrap-mode: wrap;&quot;&gt;Home&amp;nbsp;&lt;/span&gt;&lt;span style=&quot;background-color: transparent; color: light-dark(rgb(0, 0, 0), rgb(255, 255, 255)); text-wrap-mode: wrap;&quot;&gt;Screen&lt;/span&gt;&lt;/div&gt;" style="text;html=1;align=center;verticalAlign=middle;resizable=0;points=[];autosize=1;strokeColor=none;fillColor=none;" parent="1" vertex="1">
          <mxGeometry x="240" y="75" width="100" height="40" as="geometry" />
        </mxCell>
        <mxCell id="dqEQVBHNj60N6kbqKJd0-37" value="" style="endArrow=none;html=1;rounded=0;entryX=0.071;entryY=0.758;entryDx=0;entryDy=0;entryPerimeter=0;exitX=1.027;exitY=0.466;exitDx=0;exitDy=0;exitPerimeter=0;" parent="1" source="dqEQVBHNj60N6kbqKJd0-22" target="dqEQVBHNj60N6kbqKJd0-28" edge="1">
          <mxGeometry width="50" height="50" relative="1" as="geometry">
            <mxPoint x="487" y="610" as="sourcePoint" />
            <mxPoint x="580" y="280" as="targetPoint" />
          </mxGeometry>
        </mxCell>
        <mxCell id="dqEQVBHNj60N6kbqKJd0-39" value="Add" style="ellipse;shape=umlControl;whiteSpace=wrap;html=1;" parent="1" vertex="1">
          <mxGeometry x="585" y="420" width="80" height="80" as="geometry" />
        </mxCell>
        <mxCell id="dqEQVBHNj60N6kbqKJd0-40" value="" style="endArrow=none;html=1;rounded=0;entryX=0;entryY=0;entryDx=0;entryDy=0;exitX=0.925;exitY=0.863;exitDx=0;exitDy=0;exitPerimeter=0;" parent="1" source="dqEQVBHNj60N6kbqKJd0-39" target="dqEQVBHNj60N6kbqKJd0-28" edge="1">
          <mxGeometry width="50" height="50" relative="1" as="geometry">
            <mxPoint x="514" y="460" as="sourcePoint" />
            <mxPoint x="630" y="470" as="targetPoint" />
          </mxGeometry>
        </mxCell>
        <mxCell id="dqEQVBHNj60N6kbqKJd0-43" value="" style="shape=umlBoundary;whiteSpace=wrap;html=1;" parent="1" vertex="1">
          <mxGeometry x="230" y="420" width="100" height="80" as="geometry" />
        </mxCell>
        <mxCell id="dqEQVBHNj60N6kbqKJd0-44" value="Notification Create Screen" style="text;html=1;align=center;verticalAlign=middle;resizable=0;points=[];autosize=1;strokeColor=none;fillColor=none;" parent="1" vertex="1">
          <mxGeometry x="210" y="390" width="160" height="30" as="geometry" />
        </mxCell>
        <mxCell id="dqEQVBHNj60N6kbqKJd0-45" value="" style="endArrow=none;html=1;rounded=0;exitX=1;exitY=0.3333333333333333;exitDx=0;exitDy=0;exitPerimeter=0;entryX=-0.02;entryY=0.5;entryDx=0;entryDy=0;entryPerimeter=0;" parent="1" source="dqEQVBHNj60N6kbqKJd0-1" target="dqEQVBHNj60N6kbqKJd0-43" edge="1">
          <mxGeometry width="50" height="50" relative="1" as="geometry">
            <mxPoint x="100" y="160" as="sourcePoint" />
            <mxPoint x="239" y="331" as="targetPoint" />
          </mxGeometry>
        </mxCell>
        <mxCell id="dqEQVBHNj60N6kbqKJd0-46" value="Display" style="ellipse;shape=umlControl;whiteSpace=wrap;html=1;" parent="1" vertex="1">
          <mxGeometry x="470" y="280" width="70" height="80" as="geometry" />
        </mxCell>
        <mxCell id="dqEQVBHNj60N6kbqKJd0-47" value="" style="endArrow=none;html=1;rounded=0;exitX=1.01;exitY=0.488;exitDx=0;exitDy=0;exitPerimeter=0;entryX=0;entryY=0.5;entryDx=0;entryDy=0;entryPerimeter=0;" parent="1" source="dqEQVBHNj60N6kbqKJd0-7" target="dqEQVBHNj60N6kbqKJd0-46" edge="1">
          <mxGeometry width="50" height="50" relative="1" as="geometry">
            <mxPoint x="380" y="510" as="sourcePoint" />
            <mxPoint x="450" y="320" as="targetPoint" />
          </mxGeometry>
        </mxCell>
        <mxCell id="dqEQVBHNj60N6kbqKJd0-48" value="" style="endArrow=none;html=1;rounded=0;exitX=0.964;exitY=0.307;exitDx=0;exitDy=0;exitPerimeter=0;entryX=0.067;entryY=0.79;entryDx=0;entryDy=0;entryPerimeter=0;" parent="1" source="dqEQVBHNj60N6kbqKJd0-43" target="dqEQVBHNj60N6kbqKJd0-46" edge="1">
          <mxGeometry width="50" height="50" relative="1" as="geometry">
            <mxPoint x="360" y="460" as="sourcePoint" />
            <mxPoint x="410" y="410" as="targetPoint" />
          </mxGeometry>
        </mxCell>
        <mxCell id="dqEQVBHNj60N6kbqKJd0-52" value="Complete the form&lt;div&gt;and press create&lt;/div&gt;" style="text;html=1;align=center;verticalAlign=middle;resizable=0;points=[];autosize=1;strokeColor=none;fillColor=none;rotation=66;" parent="1" vertex="1">
          <mxGeometry x="85" y="295" width="120" height="40" as="geometry" />
        </mxCell>
        <mxCell id="-YH_0XpnqGc-ggpoFpTG-12" value="Load" style="ellipse;shape=umlControl;whiteSpace=wrap;html=1;" parent="1" vertex="1">
          <mxGeometry x="560" y="555" width="70" height="80" as="geometry" />
        </mxCell>
        <mxCell id="-YH_0XpnqGc-ggpoFpTG-14" value="" style="endArrow=none;html=1;rounded=0;exitX=0.452;exitY=0.98;exitDx=0;exitDy=0;exitPerimeter=0;entryX=0.823;entryY=0.238;entryDx=0;entryDy=0;entryPerimeter=0;" parent="1" source="dqEQVBHNj60N6kbqKJd0-39" target="-YH_0XpnqGc-ggpoFpTG-12" edge="1">
          <mxGeometry width="50" height="50" relative="1" as="geometry">
            <mxPoint x="325" y="763" as="sourcePoint" />
            <mxPoint x="580" y="575" as="targetPoint" />
          </mxGeometry>
        </mxCell>
        <mxCell id="p3D7ICheK7Dhiz9U6RIN-1" value="Load" style="ellipse;shape=umlControl;whiteSpace=wrap;html=1;" parent="1" vertex="1">
          <mxGeometry x="650" y="110" width="70" height="80" as="geometry" />
        </mxCell>
        <mxCell id="p3D7ICheK7Dhiz9U6RIN-4" value="" style="endArrow=none;html=1;rounded=0;exitX=0.957;exitY=0.488;exitDx=0;exitDy=0;exitPerimeter=0;entryX=0.143;entryY=0.875;entryDx=0;entryDy=0;entryPerimeter=0;" parent="1" source="dqEQVBHNj60N6kbqKJd0-5" target="p3D7ICheK7Dhiz9U6RIN-1" edge="1">
          <mxGeometry width="50" height="50" relative="1" as="geometry">
            <mxPoint x="341" y="160" as="sourcePoint" />
            <mxPoint x="660" y="161" as="targetPoint" />
          </mxGeometry>
        </mxCell>
        <mxCell id="p3D7ICheK7Dhiz9U6RIN-5" value="" style="endArrow=none;html=1;rounded=0;exitX=0.4;exitY=-0.012;exitDx=0;exitDy=0;exitPerimeter=0;entryX=0.714;entryY=0.988;entryDx=0;entryDy=0;entryPerimeter=0;" parent="1" source="dqEQVBHNj60N6kbqKJd0-28" target="p3D7ICheK7Dhiz9U6RIN-1" edge="1">
          <mxGeometry width="50" height="50" relative="1" as="geometry">
            <mxPoint x="547" y="239" as="sourcePoint" />
            <mxPoint x="670" y="190" as="targetPoint" />
          </mxGeometry>
        </mxCell>
        <mxCell id="vqdHfy1p9RjJIGEmaiFS-1" value="Add Announcement" style="ellipse;whiteSpace=wrap;html=1;" parent="1" vertex="1">
          <mxGeometry x="20" y="10" width="120" height="80" as="geometry" />
        </mxCell>
        <mxCell id="lLKYZlL_veLnByWOw1NA-23" value="Display" style="ellipse;shape=umlControl;whiteSpace=wrap;html=1;" vertex="1" parent="1">
          <mxGeometry x="410" y="561" width="70" height="80" as="geometry" />
        </mxCell>
        <mxCell id="lLKYZlL_veLnByWOw1NA-24" value="" style="endArrow=none;html=1;rounded=0;entryX=-0.011;entryY=0.579;entryDx=0;entryDy=0;entryPerimeter=0;" edge="1" parent="1" target="-YH_0XpnqGc-ggpoFpTG-12">
          <mxGeometry width="50" height="50" relative="1" as="geometry">
            <mxPoint x="480" y="601" as="sourcePoint" />
            <mxPoint x="485" y="353" as="targetPoint" />
          </mxGeometry>
        </mxCell>
        <mxCell id="lLKYZlL_veLnByWOw1NA-25" value="" style="endArrow=none;html=1;rounded=0;exitX=1.007;exitY=0.524;exitDx=0;exitDy=0;exitPerimeter=0;entryX=-0.002;entryY=0.524;entryDx=0;entryDy=0;entryPerimeter=0;" edge="1" parent="1" source="dqEQVBHNj60N6kbqKJd0-18" target="lLKYZlL_veLnByWOw1NA-23">
          <mxGeometry width="50" height="50" relative="1" as="geometry">
            <mxPoint x="346" y="465" as="sourcePoint" />
            <mxPoint x="495" y="363" as="targetPoint" />
          </mxGeometry>
        </mxCell>
        <mxCell id="lLKYZlL_veLnByWOw1NA-26" value="" style="endArrow=none;html=1;rounded=0;entryX=0;entryY=0.5;entryDx=0;entryDy=0;exitX=0.869;exitY=0.899;exitDx=0;exitDy=0;exitPerimeter=0;" edge="1" parent="1" source="-YH_0XpnqGc-ggpoFpTG-12" target="dqEQVBHNj60N6kbqKJd0-28">
          <mxGeometry width="50" height="50" relative="1" as="geometry">
            <mxPoint x="490" y="611" as="sourcePoint" />
            <mxPoint x="569" y="611" as="targetPoint" />
          </mxGeometry>
        </mxCell>
        <mxCell id="lLKYZlL_veLnByWOw1NA-27" value="Create" style="ellipse;shape=umlControl;whiteSpace=wrap;html=1;" vertex="1" parent="1">
          <mxGeometry x="430" y="420" width="80" height="80" as="geometry" />
        </mxCell>
        <mxCell id="lLKYZlL_veLnByWOw1NA-28" value="" style="endArrow=none;html=1;rounded=0;entryX=-0.002;entryY=0.505;entryDx=0;entryDy=0;entryPerimeter=0;" edge="1" parent="1" target="lLKYZlL_veLnByWOw1NA-27">
          <mxGeometry width="50" height="50" relative="1" as="geometry">
            <mxPoint x="329" y="459" as="sourcePoint" />
            <mxPoint x="419" y="459.28999999999996" as="targetPoint" />
          </mxGeometry>
        </mxCell>
        <mxCell id="lLKYZlL_veLnByWOw1NA-29" value="" style="endArrow=none;html=1;rounded=0;exitX=1.008;exitY=0.577;exitDx=0;exitDy=0;exitPerimeter=0;entryX=-0.021;entryY=0.597;entryDx=0;entryDy=0;entryPerimeter=0;" edge="1" parent="1" source="lLKYZlL_veLnByWOw1NA-27" target="dqEQVBHNj60N6kbqKJd0-39">
          <mxGeometry width="50" height="50" relative="1" as="geometry">
            <mxPoint x="351" y="623" as="sourcePoint" />
            <mxPoint x="430" y="623" as="targetPoint" />
          </mxGeometry>
        </mxCell>
      </root>
    </mxGraphModel>
  </diagram>
</mxfile>
